<svg version="1.1" xmlns="http://www.w3.org/2000/svg" xmlns:xlink="http://www.w3.org/1999/xlink" width="104.17671" height="104.17671" viewBox="0,0,104.17671,104.17671"><defs><linearGradient x1="267.69043" y1="222.81471" x2="267.69043" y2="229.62556" gradientUnits="userSpaceOnUse" id="color-1"><stop offset="0" stop-color="#e8511c"/><stop offset="1" stop-color="#842c16"/></linearGradient><linearGradient x1="242.83989" y1="212.88745" x2="242.83989" y2="245.21176" gradientUnits="userSpaceOnUse" id="color-2"><stop offset="0" stop-color="#ffbf00"/><stop offset="1" stop-color="#ffad00"/></linearGradient><linearGradient x1="262.4154" y1="227.72686" x2="262.4154" y2="229.89017" gradientUnits="userSpaceOnUse" id="color-3"><stop offset="0" stop-color="#efab00"/><stop offset="1" stop-color="#d69404"/></linearGradient><linearGradient x1="249.99748" y1="238.56899" x2="249.99748" y2="240.7323" gradientUnits="userSpaceOnUse" id="color-4"><stop offset="0" stop-color="#efab00"/><stop offset="1" stop-color="#d69404"/></linearGradient><linearGradient x1="231.67383" y1="239.65073" x2="231.67383" y2="241.81404" gradientUnits="userSpaceOnUse" id="color-5"><stop offset="0" stop-color="#efab00"/><stop offset="1" stop-color="#d69404"/></linearGradient><linearGradient x1="245.2861" y1="215.93876" x2="245.2861" y2="218.10292" gradientUnits="userSpaceOnUse" id="color-6"><stop offset="0" stop-color="#efab00"/><stop offset="1" stop-color="#d69404"/></linearGradient><linearGradient x1="239.66415" y1="230.97199" x2="239.66415" y2="233.1353" gradientUnits="userSpaceOnUse" id="color-7"><stop offset="0" stop-color="#efab00"/><stop offset="1" stop-color="#d69404"/></linearGradient><linearGradient x1="256.08709" y1="219.75975" x2="256.08709" y2="221.92305" gradientUnits="userSpaceOnUse" id="color-8"><stop offset="0" stop-color="#efab00"/><stop offset="1" stop-color="#d69404"/></linearGradient></defs><g transform="translate(-187.91173,-146.66171)"><g stroke="none" stroke-miterlimit="10"><path d="M187.91174,250.83842v-104.17671h104.17671v104.17671z" fill="none" fill-rule="nonzero" stroke-width="NaN"/><path d="" fill="url(#color-1)" fill-rule="evenodd" stroke-width="1"/><path d="M231.05984,231.71452c3.95225,-0.22927 7.84881,-3.90635 10.3395,-2.55608c1.01361,0.54951 2.12759,0.88756 3.28631,1.08324c1.4212,0.24 -1.47633,2.61973 -2.93609,5.24682c-1.23218,2.21751 -1.0087,4.67288 -0.67176,5.54167c0.88551,2.28329 4.08646,4.18159 3.27568,4.18159c-9.73503,0 -19.6553,0.00001 -23.67586,0.00001c-1.90432,0 3.6926,-2.40499 6.39177,-5.95759c2.3555,-3.10027 1.55044,-7.3981 3.99045,-7.53965z" fill="url(#color-2)" fill-rule="evenodd" stroke-width="1"/><path d="" fill="url(#color-3)" fill-rule="evenodd" stroke-width="1"/><path d="" fill="url(#color-4)" fill-rule="evenodd" stroke-width="1"/><path d="M231.67383,241.81404c-1.39185,0 -1.39442,-2.16331 0,-2.16331c1.39185,0 1.39442,2.16331 0,2.16331" fill="url(#color-5)" fill-rule="evenodd" stroke-width="1"/><path d="" fill="url(#color-6)" fill-rule="evenodd" stroke-width="1"/><path d="M239.66415,233.1353c-1.39185,0 -1.39442,-2.16331 0,-2.16331c1.39185,0 1.39442,2.16331 0,2.16331" fill="url(#color-7)" fill-rule="evenodd" stroke-width="1"/><path d="" fill="url(#color-8)" fill-rule="evenodd" stroke-width="1"/></g></g></svg>