<svg version="1.1" xmlns="http://www.w3.org/2000/svg" xmlns:xlink="http://www.w3.org/1999/xlink" width="401.03941" height="282.91832" viewBox="0,0,401.03941,282.91832"><defs><linearGradient x1="240.00002" y1="46.79066" x2="240.00002" y2="111.05617" gradientUnits="userSpaceOnUse" id="color-1"><stop offset="0" stop-color="#ea5a00"/><stop offset="1" stop-color="#ff7c2b"/></linearGradient></defs><g transform="translate(-44.15831,-34.04106)"><g data-paper-data="{&quot;isPaintingLayer&quot;:true}" fill-rule="nonzero" stroke-miterlimit="10" stroke-dasharray="" stroke-dashoffset="0" style="mix-blend-mode: normal"><path d="M47.90831,252.70792c0,-50.58918 0,-118.93037 0,-147.53866c0,-25.44182 31.6869,-58.3786 59.44003,-58.3786c44.53989,0 181.0096,0 262.17301,0c37.04642,0 62.57035,32.23675 62.57035,57.31718c0,29.01157 0,99.57648 0,150.72295c0,33.30662 -34.28555,58.3786 -63.63178,58.3786c-44.00902,0 -172.3127,0 -252.62015,0c-39.88532,0 -67.93146,-26.16075 -67.93146,-60.50146z" fill="#9a5830" stroke="#744224" stroke-width="7.5" stroke-linecap="butt" stroke-linejoin="miter"/><path d="M47.90831,105.16926c0,-25.44182 31.6869,-58.3786 59.44003,-58.3786c44.53989,0 181.0096,0 262.17301,0c37.04642,0 62.57035,32.23675 62.57035,57.31718c0,8.7575 -33.20423,6.08187 -80.64323,5.72427c-31.56249,-0.23792 -188.58052,0.92629 -224.00271,1.02266c-42.67497,0.11609 -79.53745,1.60541 -79.53745,-5.6855z" fill="url(#color-1)" stroke="#744224" stroke-width="7.5" stroke-linecap="butt" stroke-linejoin="miter"/><text transform="translate(142.2465,93.03842) scale(0.86892,0.86892)" font-size="40" xml:space="preserve" fill="#ffffff" fill-rule="nonzero" stroke="none" stroke-width="1" stroke-linecap="butt" stroke-linejoin="miter" stroke-miterlimit="10" stroke-dasharray="" stroke-dashoffset="0" font-family="Pixel" font-weight="normal" text-anchor="start" style="mix-blend-mode: normal"><tspan x="0" dy="0">Update log</tspan></text><text transform="translate(70.99508,152.37507) scale(0.5,0.5)" font-size="40" xml:space="preserve" fill="#ffffff" fill-rule="nonzero" stroke="none" stroke-width="1" stroke-linecap="butt" stroke-linejoin="miter" stroke-miterlimit="10" stroke-dasharray="" stroke-dashoffset="0" font-family="Pixel" font-weight="normal" text-anchor="start" style="mix-blend-mode: normal"><tspan x="0" dy="0">                  Version 1.1.0</tspan><tspan x="0" dy="46.150000000000006px">Big update released!</tspan><tspan x="0" dy="46.150000000000006px">i added Rock coin animations and</tspan><tspan x="0" dy="46.150000000000006px">fixxed events to work properly.</tspan><tspan x="0" dy="46.150000000000006px">I also added update logs to this</tspan><tspan x="0" dy="46.150000000000006px">update! Pretty neat huh?</tspan></text><g><path d="M441.44772,62.25002c0,13.50831 -10.94561,24.45895 -24.44771,24.45895c-13.5021,0 -24.44771,-10.95065 -24.44771,-24.45895c0,-13.50831 10.94562,-24.45895 24.44771,-24.45895c13.5021,0 24.44771,10.95065 24.44771,24.45895z" fill="#9a5830" stroke="#744224" stroke-width="7.5" stroke-linecap="butt" stroke-linejoin="miter"/><text transform="translate(406.41934,71.56941) scale(0.88644,0.69075)" font-size="40" xml:space="preserve" fill="#ff0000" fill-rule="nonzero" stroke="#ff0000" stroke-width="6" stroke-linecap="round" stroke-linejoin="round" stroke-miterlimit="10" stroke-dasharray="" stroke-dashoffset="0" font-family="Sans Serif" font-weight="normal" text-anchor="start" style="mix-blend-mode: normal"><tspan x="0" dy="0">X</tspan></text></g></g></g></svg>