<svg version="1.1" xmlns="http://www.w3.org/2000/svg" xmlns:xlink="http://www.w3.org/1999/xlink" width="80.28604" height="70.62744" viewBox="0,0,80.28604,70.62744"><g transform="translate(-199.83446,-151.79106)"><g data-paper-data="{&quot;isPaintingLayer&quot;:true}" stroke-linecap="butt" stroke-linejoin="miter" stroke-miterlimit="10" stroke-dasharray="" stroke-dashoffset="0" style="mix-blend-mode: normal"><path d="M253.56512,158.68076z" fill="none" fill-rule="nonzero" stroke="#744224" stroke-width="3"/><path d="M264.44771,180.00002c0,13.50831 -10.94561,24.45895 -24.44771,24.45895c-13.5021,0 -24.44771,-10.95065 -24.44771,-24.45895c0,-13.50831 10.94562,-24.45895 24.44771,-24.45895c13.5021,0 24.44771,10.95065 24.44771,24.45895z" fill="#9a5830" fill-rule="nonzero" stroke="#744224" stroke-width="7.5"/><g fill="#ffffff" fill-rule="evenodd" stroke="none" stroke-width="1"><path d="M224.6937,168.88026l1.25049,-1.25049h27.51079l1.25049,1.25049v10.00392h-2.50098v-2.50098h-25.00981v10.00392h10.00392v2.50098h-11.25441l-1.25049,-1.25049zM227.19468,173.88222h25.00981v-3.75147h-25.00981z"/><path d="M252.38572,190.96747l-2.33771,1.40277l-2.92059,-4.86771l-2.92059,4.86771l-2.33771,-1.40277l1.2152,-2.02527c-0.01545,0.00018 -0.0309,0.00036 -0.04635,0.00036c-2.25846,0 -4.08944,-1.83098 -4.08944,-4.08944c0,-2.25846 1.83098,-4.08944 4.08944,-4.08944c0.73501,0 1.43076,0.31298 1.94294,0.60124c0.54871,0.30898 1.08034,0.70302 1.52891,1.06943c0.22138,0.18084 0.42948,0.36096 0.6176,0.52945c0.18811,-0.16848 0.39622,-0.3486 0.6176,-0.52945c0.44857,-0.36641 0.98019,-0.76045 1.52891,-1.06943c0.51218,-0.28826 1.20793,-0.60124 1.94294,-0.60124c2.25846,0 4.08944,1.83098 4.08944,4.08944c0,2.25846 -1.83098,4.08944 -4.08944,4.08944c-0.01545,0 -0.0309,-0.00018 -0.04635,-0.00036zM244.78481,185.16065c-0.3855,0.31516 -0.78208,0.60269 -1.14141,0.80498c-0.17812,0.10033 -0.32716,0.16812 -0.44439,0.20883c-0.11178,0.0389 -0.16231,0.04162 -0.16212,0.0418c0,0 0.00036,0 0.00109,0c-0.75282,0 -1.36315,-0.61033 -1.36315,-1.36315c0,-0.75282 0.61033,-1.36315 1.36315,-1.36315c-0.00073,0 -0.00109,0 -0.00109,0c-0.00018,0.00018 0.05035,0.00291 0.16212,0.0418c0.11723,0.04071 0.26627,0.10851 0.44439,0.20883c0.35933,0.20229 0.75591,0.48982 1.14141,0.80498c0.12614,0.10305 0.24809,0.20647 0.36369,0.30753c-0.11559,0.10105 -0.23755,0.20447 -0.36369,0.30753zM249.47004,184.5456c0.3855,-0.31516 0.78208,-0.60269 1.14141,-0.80498c0.17812,-0.10033 0.32716,-0.16812 0.44439,-0.20883c0.11178,-0.0389 0.16231,-0.04162 0.16231,-0.0418c-0.00018,0 -0.00055,0 -0.00127,0c0.75282,0 1.36315,0.61033 1.36315,1.36315c0,0.75282 -0.61033,1.36315 -1.36315,1.36315c0.00073,0 0.00109,0 0.00127,0c0,-0.00018 -0.05053,-0.00291 -0.16231,-0.0418c-0.11723,-0.04071 -0.26627,-0.10851 -0.44439,-0.20883c-0.35933,-0.20229 -0.75591,-0.48982 -1.14141,-0.80498c-0.12614,-0.10305 -0.24809,-0.20647 -0.36369,-0.30753c0.11559,-0.10105 0.23755,-0.20447 0.36369,-0.30753z"/></g><path d="M202.08448,213.08751c0,-3.80057 0,-8.15866 0,-10.42577c0,-2.90261 4.32528,-7.13309 8.51036,-7.13309c8.88044,0 42.67533,0 58.72056,0c5.2151,0 8.55511,3.1318 8.55511,6.86652c0,3.9168 0,8.49673 0,10.82276c0,2.84829 -3.38499,6.95057 -8.65861,6.95057c-16.02453,0 -49.48704,0 -58.4035,0c-4.27431,0 -8.72393,-3.25851 -8.72393,-7.08098z" fill="#df5906" fill-rule="nonzero" stroke="#c3540f" stroke-width="4.5"/><text transform="translate(205.9276,211.20601) scale(0.25091,0.25091)" font-size="40" xml:space="preserve" fill="#ffffff" fill-rule="nonzero" stroke="none" stroke-width="1" stroke-linecap="butt" stroke-linejoin="miter" stroke-miterlimit="10" stroke-dasharray="" stroke-dashoffset="0" font-family="Pixel" font-weight="normal" text-anchor="start" style="mix-blend-mode: normal"><tspan x="0" dy="0">Redeem Code</tspan></text></g></g></svg>